<svg height="240" viewBox="0 0 280 120" width="560" xmlns="http://www.w3.org/2000/svg" xmlns:xlink="http://www.w3.org/1999/xlink"><radialGradient id="a" cx=".198" cy=".219" gradientTransform="matrix(.70710678 .70710678 -.74953319 .74953319 .222 -.085)" gradientUnits="objectBoundingBox" r="1.193"><stop offset="0" stop-color="#fff"/><stop offset="1"/></radialGradient><radialGradient id="b" cx=".437" cy=".427" fx=".043842" gradientTransform="matrix(.70710678 .70710678 -.74953319 .74953319 .448 -.202)" gradientUnits="objectBoundingBox" r=".57"><stop offset="0" stop-color="#b50404"/><stop offset=".504" stop-color="#a30000"/><stop offset=".879" stop-color="#3f0000"/></radialGradient><radialGradient id="c" cx=".437" cy=".427" fx=".043873" r=".57" xlink:href="#b"/><radialGradient id="d" cx=".198" cy=".219" gradientTransform="matrix(.70710678 .70710678 -.74953319 .74953319 .222 -.085)" gradientUnits="objectBoundingBox" r="1.193"><stop offset="0" stop-color="#fff"/><stop offset=".782"/></radialGradient><clipPath id="e"><path d="m0 0h280v120h-280z"/></clipPath><g clip-path="url(#e)"><path d="m0 0h280v120h-280z" fill="#fff"/><g transform="translate(-2.67 -51.25)"><path d="m251.09 138.1v-2.4h-4.35v-1.13l4.57-6.49h1v6.49h1.35v1.13h-1.35v2.4zm0-3.52v-4.52l-3.14 4.52z"/><path d="m253.61 153.72v1.18h-6.62a2.2 2.2 0 0 1 .14-.85 4.487 4.487 0 0 1 .81-1.33 12.954 12.954 0 0 1 1.61-1.52 13.478 13.478 0 0 0 2.21-2.12 2.536 2.536 0 0 0 .57-1.48 1.617 1.617 0 0 0 -.52-1.23 1.858 1.858 0 0 0 -1.36-.5 1.932 1.932 0 0 0 -1.42.53 2.019 2.019 0 0 0 -.54 1.48l-1.26-.13a3.135 3.135 0 0 1 .98-2.16 3.312 3.312 0 0 1 2.28-.74 3.184 3.184 0 0 1 2.28.8 2.614 2.614 0 0 1 .84 1.98 2.911 2.911 0 0 1 -.25 1.18 4.74 4.74 0 0 1 -.82 1.22 18.25 18.25 0 0 1 -1.9 1.76c-.74.62-1.21 1.04-1.42 1.26a3.911 3.911 0 0 0 -.52.67z"/></g><g transform="translate(-2.67 -51.25)"><path d="m54.39 153.45a13.072 13.072 0 0 1 -3.47-4.57 13.464 13.464 0 0 1 -1.22-5.71 12.424 12.424 0 0 1 2.61-7.92 11.065 11.065 0 0 1 2.18-2.29l.12.01.33.42v.12a13.331 13.331 0 0 0 -3.35 9.43 17.814 17.814 0 0 0 .75 5.51 14.081 14.081 0 0 0 2.6 4.52l-.01.13-.4.35z"/><path d="m58 141.09-.42-.11-.09-.11v-1.33a6.232 6.232 0 0 1 3.72-1.42 4.092 4.092 0 0 1 2.05.46 2.909 2.909 0 0 1 1.18 1.15 3.458 3.458 0 0 1 .37 1.62l-.05 2.16v3.2a1.927 1.927 0 0 0 .09.79.47.47 0 0 0 .21.19 1.931 1.931 0 0 0 .44.08l.61.05.09.1v.43l-.09.09c-.52-.04-1.01-.06-1.46-.06-.43 0-.95.02-1.55.06l-.16-.15.04-1.73-2.34 1.83a3.37 3.37 0 0 1 -1.29.25 3.233 3.233 0 0 1 -1.48-.31 2.291 2.291 0 0 1 -.95-.87 2.6 2.6 0 0 1 -.33-1.35 3.166 3.166 0 0 1 .99-2.47q.99-.885 5.39-1.51a2.946 2.946 0 0 0 -.71-2.24 2.72 2.72 0 0 0 -1.9-.65 3.349 3.349 0 0 0 -1.13.18 1.4 1.4 0 0 0 -.59.3c-.05.08-.24.51-.58 1.32zm4.99 1.7a10.372 10.372 0 0 0 -3.75 1.08 2.1 2.1 0 0 0 -.74 1.79 1.478 1.478 0 0 0 1.67 1.68 3.871 3.871 0 0 0 2.83-1.65v-2.9z"/><path d="m70.74 132.46.2.13q-.12 1.23-.12 4.95v6.74c0 .16.01.66.04 1.52s.06 1.36.09 1.5a.564.564 0 0 0 .15.31.424.424 0 0 0 .24.12c.09.02.48.05 1.16.09l.1.09v.45l-.09.1c-.9-.06-1.76-.09-2.59-.09s-1.68.03-2.58.09l-.1-.1v-.45l.1-.09c.69-.04 1.09-.08 1.18-.1a.564.564 0 0 0 .24-.13.6.6 0 0 0 .14-.31c.02-.14.05-.6.09-1.39s.05-1.38.05-1.78v-5.56l-.04-2.28c-.02-.79-.04-1.35-.07-1.65a1.717 1.717 0 0 0 -.1-.55.389.389 0 0 0 -.23-.13 9.717 9.717 0 0 0 -1.3-.04l-.1-.1v-.45l.09-.1a13.118 13.118 0 0 0 3.45-.79z"/><path d="m77.1 138.01.2.13c-.07.82-.11 1.54-.12 2.17.97-.89 1.65-1.48 2.04-1.76a3.372 3.372 0 0 1 1.98-.43 5.024 5.024 0 0 1 1.6.24 3.838 3.838 0 0 1 2.3 2.18 4.852 4.852 0 0 1 .35 1.93 5.1 5.1 0 0 1 -.25 1.57 6.977 6.977 0 0 1 -.65 1.47 4.633 4.633 0 0 1 -.64.9 6.222 6.222 0 0 1 -.99.66c-.45.27-.9.57-1.34.88a6.959 6.959 0 0 1 -.64.43 2.777 2.777 0 0 1 -.61.19 4.451 4.451 0 0 1 -.91.1 4.761 4.761 0 0 1 -2.22-.57v2.29c0 .16.01.66.04 1.52s.06 1.35.09 1.5a.564.564 0 0 0 .15.31.424.424 0 0 0 .24.12c.09.02.48.05 1.16.09l.1.09v.45l-.09.1c-.9-.06-1.75-.09-2.58-.09s-1.68.03-2.58.09l-.1-.1v-.45l.1-.09c.69-.04 1.08-.08 1.17-.1a.564.564 0 0 0 .24-.13.633.633 0 0 0 .14-.33q.03-.225.09-1.44c.03-.81.05-1.42.05-1.83v-8.23c0-.37-.02-.8-.05-1.29a7.439 7.439 0 0 0 -.08-.85.3.3 0 0 0 -.16-.19 1.245 1.245 0 0 0 -.55-.08l-.9-.01-.1-.09v-.46l.09-.09a13.762 13.762 0 0 0 3.43-.8zm.09 8.24a4.717 4.717 0 0 0 1.22.88 3.468 3.468 0 0 0 1.61.37 3.281 3.281 0 0 0 1.84-.53 3.377 3.377 0 0 0 1.24-1.54 5.679 5.679 0 0 0 .44-2.25 4.428 4.428 0 0 0 -.39-1.86 3.04 3.04 0 0 0 -1.21-1.35 3.333 3.333 0 0 0 -1.75-.49 3.25 3.25 0 0 0 -1.11.2 3.3 3.3 0 0 0 -1 .59 2.762 2.762 0 0 0 -.67.74 1.208 1.208 0 0 0 -.21.58c-.01.15-.01.32-.01.51z"/><path d="m90 132.46.2.13q-.12 1.23-.12 4.95v2.65q.9-.735 1.68-1.47a1.532 1.532 0 0 1 .43-.3 4.609 4.609 0 0 1 1.6-.31 3.962 3.962 0 0 1 1.58.33 3.19 3.19 0 0 1 1.16.79 2.506 2.506 0 0 1 .54 1.08 6.737 6.737 0 0 1 .15 1.54v1.89c0 .12.02 1.01.05 2.67a2.207 2.207 0 0 0 .23 1.21c.13.13.57.19 1.33.19l.09.09v.46l-.09.09c-.91-.06-1.53-.09-1.85-.09-.17 0-.69.03-1.57.09l-.13-.12c.09-.93.14-2.14.14-3.64v-1.41q0-1.26-.06-1.83a2.315 2.315 0 0 0 -.36-1.02 2.112 2.112 0 0 0 -.8-.71 2.639 2.639 0 0 0 -1.21-.25 3.311 3.311 0 0 0 -1.22.2 3.211 3.211 0 0 0 -.99.67 2.215 2.215 0 0 0 -.61.79 4.665 4.665 0 0 0 -.1 1.22v1.91c0 .16.01.66.04 1.52s.06 1.36.09 1.5a.564.564 0 0 0 .15.31.424.424 0 0 0 .24.12c.09.02.48.05 1.16.09l.1.09v.45l-.09.1c-.9-.06-1.76-.09-2.59-.09s-1.68.03-2.58.09l-.1-.1v-.45l.1-.09c.69-.04 1.09-.08 1.18-.1a.564.564 0 0 0 .24-.13.6.6 0 0 0 .14-.31c.02-.14.05-.6.09-1.39s.05-1.38.05-1.78v-5.56l-.04-2.28c-.02-.79-.04-1.35-.07-1.65a1.717 1.717 0 0 0 -.1-.55.389.389 0 0 0 -.23-.13 9.717 9.717 0 0 0 -1.3-.04l-.1-.1v-.45l.09-.1a12.4 12.4 0 0 0 3.46-.77z"/><path d="m101.43 141.09-.42-.11-.09-.11v-1.33a6.232 6.232 0 0 1 3.72-1.42 4.092 4.092 0 0 1 2.05.46 2.909 2.909 0 0 1 1.18 1.15 3.458 3.458 0 0 1 .37 1.62l-.05 2.16v3.2a1.927 1.927 0 0 0 .09.79.47.47 0 0 0 .21.19 1.931 1.931 0 0 0 .44.08l.61.05.09.1v.43l-.09.09c-.52-.04-1.01-.06-1.46-.06-.43 0-.95.02-1.55.06l-.16-.15.04-1.73-2.34 1.83a3.37 3.37 0 0 1 -1.29.25 3.233 3.233 0 0 1 -1.48-.31 2.291 2.291 0 0 1 -.95-.87 2.6 2.6 0 0 1 -.33-1.35 3.166 3.166 0 0 1 .99-2.47q.99-.885 5.39-1.51a2.946 2.946 0 0 0 -.71-2.24 2.72 2.72 0 0 0 -1.9-.65 3.349 3.349 0 0 0 -1.13.18 1.4 1.4 0 0 0 -.59.3c-.05.08-.24.51-.58 1.32zm4.99 1.7a10.372 10.372 0 0 0 -3.75 1.08 2.1 2.1 0 0 0 -.74 1.79 1.478 1.478 0 0 0 1.67 1.68 3.871 3.871 0 0 0 2.83-1.65v-2.9z"/><path d="m119.63 138.01.2.13c-.07.82-.11 1.54-.12 2.17.97-.89 1.65-1.48 2.04-1.76a3.372 3.372 0 0 1 1.98-.43 5.024 5.024 0 0 1 1.6.24 3.838 3.838 0 0 1 2.3 2.18 4.852 4.852 0 0 1 .35 1.93 5.1 5.1 0 0 1 -.25 1.57 6.977 6.977 0 0 1 -.65 1.47 4.633 4.633 0 0 1 -.64.9 6.222 6.222 0 0 1 -.99.66c-.45.27-.9.57-1.34.88a6.959 6.959 0 0 1 -.64.43 2.777 2.777 0 0 1 -.61.19 4.451 4.451 0 0 1 -.91.1 4.761 4.761 0 0 1 -2.22-.57v2.29c0 .16.01.66.04 1.52s.06 1.35.09 1.5a.564.564 0 0 0 .15.31.424.424 0 0 0 .24.12c.09.02.48.05 1.16.09l.1.09v.45l-.09.1c-.9-.06-1.75-.09-2.58-.09s-1.68.03-2.58.09l-.1-.1v-.45l.1-.09c.69-.04 1.08-.08 1.17-.1a.564.564 0 0 0 .24-.13.633.633 0 0 0 .14-.33q.03-.225.09-1.44c.03-.81.05-1.42.05-1.83v-8.23c0-.37-.02-.8-.05-1.29a7.439 7.439 0 0 0 -.08-.85.3.3 0 0 0 -.16-.19 1.245 1.245 0 0 0 -.55-.08l-.9-.01-.1-.09v-.46l.09-.09a13.762 13.762 0 0 0 3.43-.8zm.08 8.24a4.717 4.717 0 0 0 1.22.88 3.468 3.468 0 0 0 1.61.37 3.281 3.281 0 0 0 1.84-.53 3.377 3.377 0 0 0 1.24-1.54 5.679 5.679 0 0 0 .44-2.25 4.428 4.428 0 0 0 -.39-1.86 3.04 3.04 0 0 0 -1.21-1.35 3.333 3.333 0 0 0 -1.75-.49 3.25 3.25 0 0 0 -1.11.2 3.3 3.3 0 0 0 -1 .59 2.762 2.762 0 0 0 -.67.74 1.208 1.208 0 0 0 -.21.58c-.01.15-.01.32-.01.51z"/><path d="m131.16 141.09-.42-.11-.09-.11v-1.33a6.255 6.255 0 0 1 3.72-1.42 4.092 4.092 0 0 1 2.05.46 2.909 2.909 0 0 1 1.18 1.15 3.457 3.457 0 0 1 .37 1.62l-.05 2.16v3.2a1.927 1.927 0 0 0 .09.79.471.471 0 0 0 .21.19 1.931 1.931 0 0 0 .44.08l.61.05.09.1v.43l-.09.09c-.52-.04-1.01-.06-1.46-.06-.43 0-.95.02-1.55.06l-.16-.15.04-1.73-2.34 1.83a3.37 3.37 0 0 1 -1.29.25 3.233 3.233 0 0 1 -1.48-.31 2.291 2.291 0 0 1 -.95-.87 2.6 2.6 0 0 1 -.33-1.35 3.166 3.166 0 0 1 .99-2.47q.99-.885 5.39-1.51a2.946 2.946 0 0 0 -.71-2.24 2.72 2.72 0 0 0 -1.9-.65 3.391 3.391 0 0 0 -1.13.18 1.4 1.4 0 0 0 -.59.3c-.05.08-.24.51-.58 1.32zm4.98 1.7a10.3 10.3 0 0 0 -3.75 1.08 2.13 2.13 0 0 0 -.74 1.79 1.475 1.475 0 0 0 1.66 1.68 3.871 3.871 0 0 0 2.83-1.65z"/><path d="m144 138.14.2.14c-.04.42-.08 1.15-.1 2.21l.81-1.02a5.821 5.821 0 0 1 .7-.78 2.19 2.19 0 0 1 .71-.42 2.4 2.4 0 0 1 .84-.15 2.063 2.063 0 0 1 .89.19l.08.15c-.11.95-.18 1.79-.19 2.51h-.48a1.448 1.448 0 0 0 -1.39-.99 1.743 1.743 0 0 0 -1.16.42 2.042 2.042 0 0 0 -.66 1.06 6.646 6.646 0 0 0 -.17 1.62v1.19c0 .21.01.74.04 1.58a13.866 13.866 0 0 0 .09 1.45.5.5 0 0 0 .15.28.56.56 0 0 0 .27.12c.11.02.62.06 1.53.11l.1.09v.45l-.1.1c-.95-.06-1.95-.09-2.99-.09q-1.23 0-2.58.09l-.1-.1v-.45l.1-.09c.69-.04 1.09-.08 1.18-.1a.564.564 0 0 0 .24-.13.528.528 0 0 0 .14-.31c.02-.14.05-.6.09-1.39s.05-1.38.05-1.78v-2.1c0-.29-.01-.68-.04-1.17s-.05-.8-.07-.91a.324.324 0 0 0 -.17-.25 1.365 1.365 0 0 0 -.56-.08l-.9-.01-.1-.09v-.46l.09-.09a13.916 13.916 0 0 0 3.46-.8z"/><path d="m149.06 139.94v-.28l.08-.11a13.838 13.838 0 0 0 1.63-.7q0-2.8-.06-3.27a9.209 9.209 0 0 0 1.82-.83l.26.21c-.07.45-.16 1.76-.26 3.93.36.01.75.01 1.16.01.84 0 1.45-.02 1.82-.06l.08.08-.2.9-.09.1c-.37-.01-.77-.01-1.21-.01-.4 0-.92 0-1.55.01l-.06 4.37a16.308 16.308 0 0 0 .07 1.98 1.1 1.1 0 0 0 .39.73 1.407 1.407 0 0 0 .94.26 2.419 2.419 0 0 0 1.33-.38l.26.39c-.17.12-.58.48-1.24 1.07a2.709 2.709 0 0 1 -1.14.26 2.106 2.106 0 0 1 -2.42-2.34c0-.57.01-1.06.04-1.46.01-.12.01-.25.01-.38v-4.46h-.44c-.32 0-.69.01-1.11.04z"/><path d="m159.75 138.14.2.14c-.08.94-.12 2.13-.12 3.58v2.43c0 .16.01.66.04 1.52s.06 1.36.09 1.5a.564.564 0 0 0 .15.31.424.424 0 0 0 .24.12c.09.02.48.05 1.16.09l.1.09v.45l-.09.1c-.9-.06-1.76-.09-2.59-.09s-1.68.03-2.58.09l-.1-.1v-.45l.1-.09c.69-.04 1.09-.08 1.18-.1a.564.564 0 0 0 .24-.13.6.6 0 0 0 .14-.31c.03-.14.05-.6.09-1.39s.05-1.38.05-1.78v-2.12c0-.29-.01-.68-.04-1.17s-.05-.8-.07-.91a.324.324 0 0 0 -.17-.25 1.365 1.365 0 0 0 -.56-.08l-.9-.01-.1-.09v-.46l.09-.09a13.937 13.937 0 0 0 3.45-.8zm-.91-4.81a1.193 1.193 0 0 1 .86.35 1.139 1.139 0 0 1 .35.86 1.187 1.187 0 0 1 -.35.85 1.139 1.139 0 0 1 -.86.35 1.187 1.187 0 0 1 -.85-.35 1.141 1.141 0 0 1 -.36-.85 1.212 1.212 0 0 1 1.21-1.21z"/><path d="m171.47 147.22-.43.72a6.289 6.289 0 0 1 -3.09.76 4.688 4.688 0 0 1 -3.65-1.41 5.168 5.168 0 0 1 -1.29-3.63 6.623 6.623 0 0 1 .22-1.8 4.692 4.692 0 0 1 .56-1.31 2.988 2.988 0 0 1 .75-.82 13.785 13.785 0 0 1 1.38-.84 9.709 9.709 0 0 1 1.47-.7 4.421 4.421 0 0 1 1.36-.17 5.3 5.3 0 0 1 2.73.63 27.159 27.159 0 0 0 -.31 2.71l-.1.09h-.44l-.1-.1a7.819 7.819 0 0 0 -.12-1.21c-.05-.21-.33-.43-.85-.67a3.9 3.9 0 0 0 -1.66-.35 3.223 3.223 0 0 0 -1.57.37 2.365 2.365 0 0 0 -1.04 1.21 5.277 5.277 0 0 0 -.35 2.01 6.627 6.627 0 0 0 .28 1.93 4.92 4.92 0 0 0 .74 1.56 3.3 3.3 0 0 0 1.21.99 3.707 3.707 0 0 0 1.68.38 4.276 4.276 0 0 0 1.13-.15 7.526 7.526 0 0 0 1.27-.49z"/><path d="m175.93 132.46.2.13q-.12 1.23-.12 4.95v6.74c0 .16.01.66.04 1.52s.06 1.36.09 1.5a.64.64 0 0 0 .14.31.4.4 0 0 0 .24.12c.09.02.48.05 1.16.09l.1.09v.45l-.09.1c-.9-.06-1.76-.09-2.59-.09s-1.68.03-2.58.09l-.1-.1v-.45l.1-.09c.69-.04 1.09-.08 1.18-.1a.564.564 0 0 0 .24-.13.528.528 0 0 0 .14-.31c.02-.14.05-.6.09-1.39s.05-1.38.05-1.78v-5.56l-.04-2.28c-.02-.79-.04-1.35-.07-1.65a1.717 1.717 0 0 0 -.1-.55.389.389 0 0 0 -.23-.13 9.717 9.717 0 0 0 -1.3-.04l-.1-.1v-.45l.09-.1a13.1 13.1 0 0 0 3.46-.79z"/><path d="m187.81 146.79-.34.77a6.241 6.241 0 0 1 -3.55 1.14 6.122 6.122 0 0 1 -2.44-.5 4.118 4.118 0 0 1 -1.88-1.71 5.548 5.548 0 0 1 -.73-2.9 6.846 6.846 0 0 1 .28-2.04 5.556 5.556 0 0 1 .58-1.35 4.768 4.768 0 0 1 1.04-.98 6.94 6.94 0 0 1 1.55-.86 4.664 4.664 0 0 1 1.76-.32 4.169 4.169 0 0 1 2.27.61 3.26 3.26 0 0 1 1.38 1.55 5.224 5.224 0 0 1 .4 2.01c0 .22-.01.44-.03.64l-.12.12a11.166 11.166 0 0 1 -1.97.21c-.82.04-1.37.05-1.63.05h-3.45a4.433 4.433 0 0 0 1.12 3.28 3.744 3.744 0 0 0 2.69 1.05 4.125 4.125 0 0 0 1.44-.26 8.984 8.984 0 0 0 1.47-.72zm-6.89-4.39c.13.02.62.05 1.49.08s1.5.04 1.92.04c1 0 1.6-.02 1.82-.05.01-.17.01-.3.01-.4a3.823 3.823 0 0 0 -.68-2.48 2.284 2.284 0 0 0 -1.85-.81 2.371 2.371 0 0 0 -1.99.91 4.317 4.317 0 0 0 -.72 2.71z"/><path d="m190.18 153.45-.13-.01-.41-.35v-.13a13.936 13.936 0 0 0 2.61-4.52 17.791 17.791 0 0 0 .75-5.5 13.314 13.314 0 0 0 -3.35-9.43v-.12l.33-.42.12-.01a12.717 12.717 0 0 1 3.22 3.88 12.328 12.328 0 0 1 1.56 6.33 13.707 13.707 0 0 1 -1.19 5.63 12.8 12.8 0 0 1 -3.51 4.65z"/><path d="m212.36 140.55h-10.36v-1.2h10.36zm0 3.27h-10.36v-1.2h10.36z"/><path d="m219.69 148.37v-15.75h2.08v6.47h8.19v-6.47h2.08v15.75h-2.08v-7.42h-8.19v7.42z"/><path d="m243.07 144.7 2 .25a4.927 4.927 0 0 1 -1.75 2.72 5.935 5.935 0 0 1 -7.24-.57 6.016 6.016 0 0 1 -1.47-4.32 6.3 6.3 0 0 1 1.48-4.47 5.023 5.023 0 0 1 3.85-1.59 4.875 4.875 0 0 1 3.74 1.56 6.175 6.175 0 0 1 1.45 4.38c0 .11 0 .29-.01.52h-8.51a4.431 4.431 0 0 0 1.06 2.88 3.134 3.134 0 0 0 2.38 1 3 3 0 0 0 1.82-.56 3.756 3.756 0 0 0 1.2-1.8zm-6.34-3.13h6.37a3.907 3.907 0 0 0 -.73-2.16 2.982 2.982 0 0 0 -2.4-1.12 3.093 3.093 0 0 0 -2.24.89 3.565 3.565 0 0 0 -1 2.39z"/></g><path d="m46.22 149.07a9.976 9.976 0 0 1 -1.25.34 5.294 5.294 0 0 1 -1.03.13 1.886 1.886 0 0 1 -1.49-.57 3.86 3.86 0 0 1 -.7-2.03 8.794 8.794 0 0 1 -.74 1.04 4.321 4.321 0 0 1 -.92.86 4.6 4.6 0 0 1 -1.11.59 3.926 3.926 0 0 1 -1.36.21 4.373 4.373 0 0 1 -1.87-.43 4.708 4.708 0 0 1 -1.59-1.24 6.134 6.134 0 0 1 -1.09-1.95 7.467 7.467 0 0 1 -.4-2.51 6.735 6.735 0 0 1 .42-2.38 6.351 6.351 0 0 1 1.18-1.98 5.21 5.21 0 0 1 1.73-1.27 4.884 4.884 0 0 1 2.08-.46 4.059 4.059 0 0 1 2.37.67 3.943 3.943 0 0 1 1.43 1.88l.29-2.24h2.18c-.05.56-.17 1.38-.36 2.49s-.4 2.31-.64 3.61a10.356 10.356 0 0 0 .39 2.87 2.484 2.484 0 0 0 .92 1.48 1.552 1.552 0 0 0 .67.12c.33.01.62.01.89.01zm-4.7-5.91a13.613 13.613 0 0 0 -.27-1.74 5.735 5.735 0 0 0 -.56-1.56 3.236 3.236 0 0 0 -.94-1.12 2.343 2.343 0 0 0 -1.44-.43 2.654 2.654 0 0 0 -2.29 1.42 7.183 7.183 0 0 0 -.91 3.91 8.006 8.006 0 0 0 .2 1.8 5.179 5.179 0 0 0 .56 1.47 3.206 3.206 0 0 0 1.01 1.06 2.706 2.706 0 0 0 1.49.41 2.5 2.5 0 0 0 2.23-1.29 8.36 8.36 0 0 0 .92-3.93z" transform="translate(-2.67 -51.25)"/><circle cx="12" cy="12" fill="url(#a)" r="12" transform="translate(138.25 38.25)"/><circle cx="12" cy="12" fill="url(#b)" r="12" transform="translate(137.25 18)"/><circle cx="12" cy="12" fill="url(#c)" r="12" transform="translate(119 38.25)"/><circle cx="12" cy="12" fill="url(#d)" r="12" transform="translate(119 18.75)"/></g></svg>