<svg version="1.1" xmlns="http://www.w3.org/2000/svg" viewBox="0 0 1060.7184408262171 39.173167426208806" width="1060.7184408262171" height="39.173167426208806">
  <!-- svg-source:excalidraw -->
  
  <defs>
    <style class="style-fonts">
      @font-face {
        font-family: "Virgil";
        src: url("https://excalidraw.com/Virgil.woff2");
      }
      @font-face {
        font-family: "Cascadia";
        src: url("https://excalidraw.com/Cascadia.woff2");
      }
      @font-face {
        font-family: "Assistant";
        src: url("https://excalidraw.com/Assistant-Regular.woff2");
      }
    </style>
    
  </defs>
  <g transform="translate(10.171299039737733 36.89310238577377) rotate(0.8680514497453934 520.2218922582507 -15.247883048948722)" stroke="none"><path fill="#657b83" d="M -0.28,-4.32 Q -0.28,-4.32 3.58,-4.45 7.46,-4.58 10.72,-4.73 13.97,-4.88 16.91,-5.00 19.85,-5.12 23.17,-5.13 26.49,-5.15 29.44,-5.21 32.40,-5.27 36.75,-5.04 41.10,-4.81 43.98,-4.91 46.86,-5.01 50.15,-5.03 53.44,-5.04 56.12,-5.14 58.81,-5.24 62.01,-5.24 65.22,-5.25 70.09,-5.28 74.96,-5.30 78.66,-5.39 82.37,-5.47 85.50,-5.59 88.63,-5.71 93.32,-5.55 98.02,-5.39 103.54,-5.52 109.06,-5.65 112.76,-5.79 116.45,-5.94 121.84,-6.14 127.23,-6.33 131.55,-6.64 135.88,-6.95 139.77,-7.38 143.66,-7.82 149.77,-8.20 155.87,-8.58 160.21,-8.97 164.55,-9.37 169.07,-9.53 173.60,-9.69 177.32,-9.87 181.04,-10.05 184.43,-10.21 187.82,-10.37 190.29,-10.58 192.76,-10.79 196.65,-10.75 200.54,-10.71 204.94,-10.85 209.33,-10.98 212.30,-11.24 215.26,-11.51 218.20,-11.91 221.13,-12.31 224.07,-12.56 227.01,-12.81 229.56,-12.99 232.10,-13.17 236.67,-13.42 241.24,-13.67 244.42,-13.86 247.61,-14.05 251.60,-14.23 255.59,-14.40 258.12,-14.67 260.65,-14.94 263.07,-15.12 265.48,-15.29 269.97,-15.50 274.46,-15.71 276.78,-15.78 279.10,-15.84 282.66,-15.71 286.23,-15.57 289.03,-15.59 291.84,-15.61 295.87,-15.39 299.89,-15.16 302.70,-15.44 305.51,-15.72 309.79,-16.09 314.07,-16.46 317.74,-16.94 321.41,-17.42 324.10,-17.78 326.78,-18.15 329.53,-18.35 332.28,-18.55 335.52,-18.60 338.75,-18.65 341.93,-18.68 345.10,-18.71 349.29,-18.51 353.48,-18.30 357.58,-18.17 361.68,-18.03 365.22,-18.05 368.77,-18.07 371.11,-18.47 373.44,-18.86 375.65,-19.13 377.85,-19.40 380.36,-19.55 382.87,-19.70 387.66,-19.88 392.45,-20.07 398.33,-20.34 404.20,-20.62 408.16,-20.49 412.12,-20.37 415.61,-20.35 419.09,-20.34 422.12,-20.39 425.15,-20.45 427.47,-20.57 429.78,-20.68 432.32,-20.76 434.86,-20.84 437.04,-20.67 439.23,-20.50 444.32,-20.39 449.40,-20.28 452.23,-20.26 455.05,-20.24 457.29,-20.30 459.53,-20.36 461.84,-20.15 464.15,-19.94 466.32,-19.88 468.50,-19.82 473.12,-19.79 477.73,-19.77 479.89,-19.80 482.05,-19.83 485.80,-19.60 489.55,-19.38 492.44,-19.36 495.32,-19.35 498.35,-19.32 501.38,-19.29 504.00,-19.54 506.61,-19.79 509.22,-19.95 511.82,-20.12 515.93,-20.13 520.03,-20.14 524.21,-20.08 528.40,-20.02 532.23,-19.99 536.07,-19.97 538.73,-20.12 541.38,-20.26 543.81,-20.39 546.23,-20.52 552.01,-20.53 557.78,-20.53 560.39,-20.62 563.00,-20.70 567.08,-20.71 571.16,-20.72 574.28,-20.89 577.41,-21.06 580.67,-21.35 583.92,-21.64 586.73,-21.86 589.54,-22.09 592.37,-22.43 595.20,-22.78 597.59,-23.02 599.98,-23.27 603.86,-23.56 607.74,-23.85 610.19,-24.12 612.63,-24.39 616.50,-25.06 620.36,-25.74 623.37,-25.99 626.39,-26.24 628.54,-26.65 630.70,-27.06 633.22,-27.30 635.75,-27.53 639.71,-27.96 643.68,-28.39 647.54,-28.55 651.40,-28.71 653.87,-29.13 656.35,-29.54 658.97,-29.78 661.58,-30.03 664.59,-30.29 667.59,-30.56 670.32,-30.73 673.06,-30.91 675.25,-31.25 677.44,-31.59 680.34,-32.14 683.24,-32.69 687.62,-32.96 692.01,-33.24 695.99,-33.35 699.98,-33.46 703.48,-33.54 706.97,-33.62 711.05,-33.51 715.12,-33.41 719.17,-33.31 723.22,-33.22 725.71,-33.39 728.20,-33.55 731.07,-33.65 733.94,-33.75 737.14,-33.54 740.34,-33.33 745.40,-33.07 750.45,-32.81 754.19,-32.56 757.93,-32.32 761.64,-32.30 765.35,-32.29 768.95,-32.38 772.56,-32.48 775.56,-32.39 778.57,-32.31 781.71,-32.43 784.86,-32.55 787.39,-32.70 789.92,-32.85 794.68,-32.72 799.44,-32.60 803.45,-32.54 807.46,-32.49 811.23,-32.55 815.00,-32.62 820.54,-32.43 826.07,-32.23 831.23,-31.89 836.38,-31.54 840.12,-31.41 843.86,-31.28 847.00,-31.30 850.14,-31.31 853.94,-30.96 857.74,-30.61 861.52,-30.39 865.31,-30.17 868.47,-30.17 871.64,-30.17 874.02,-30.27 876.39,-30.38 880.97,-30.30 885.55,-30.22 888.29,-30.13 891.04,-30.05 896.10,-29.80 901.16,-29.55 903.33,-29.51 905.50,-29.46 907.92,-29.45 910.35,-29.43 913.81,-29.91 917.27,-30.39 920.59,-30.80 923.91,-31.20 927.10,-31.51 930.28,-31.82 932.45,-32.44 934.62,-33.05 936.73,-33.36 938.85,-33.66 942.60,-33.79 946.36,-33.91 949.66,-33.98 952.96,-34.04 957.80,-34.49 962.63,-34.94 967.25,-35.52 971.86,-36.11 974.02,-36.21 976.19,-36.30 978.94,-36.28 981.70,-36.25 985.69,-36.05 989.69,-35.85 991.83,-35.74 993.98,-35.63 997.94,-35.02 1001.91,-34.41 1004.55,-34.02 1007.19,-33.63 1009.78,-33.21 1012.37,-32.78 1016.85,-32.29 1021.34,-31.80 1024.00,-31.64 1026.66,-31.48 1029.08,-31.44 1031.51,-31.40 1034.09,-31.38 1036.67,-31.35 1039.20,-30.88 1041.73,-30.41 1042.54,-30.07 1043.35,-29.72 1044.01,-29.14 1044.67,-28.55 1045.11,-27.79 1045.55,-27.02 1045.72,-26.15 1045.89,-25.29 1045.78,-24.41 1045.66,-23.54 1045.28,-22.74 1044.89,-21.95 1044.27,-21.32 1043.65,-20.70 1042.86,-20.30 1042.07,-19.90 1041.20,-19.78 1040.32,-19.65 1039.45,-19.82 1038.59,-19.98 1037.81,-20.41 1037.04,-20.84 1036.45,-21.49 1035.86,-22.15 1035.50,-22.95 1035.15,-23.76 1035.07,-24.64 1035.00,-25.52 1035.21,-26.38 1035.42,-27.24 1035.89,-27.98 1036.36,-28.73 1037.04,-29.29 1037.73,-29.84 1038.55,-30.15 1039.38,-30.46 1040.26,-30.49 1041.15,-30.52 1041.99,-30.26 1042.84,-30.01 1043.56,-29.50 1044.28,-28.99 1044.79,-28.27 1045.31,-27.56 1045.58,-26.72 1045.84,-25.87 1045.82,-24.99 1045.80,-24.11 1045.50,-23.28 1045.20,-22.45 1044.65,-21.76 1044.10,-21.07 1043.36,-20.59 1042.62,-20.11 1041.77,-19.89 1040.91,-19.67 1040.03,-19.74 1039.15,-19.81 1039.15,-19.81 1039.15,-19.81 1037.83,-20.27 1036.50,-20.73 1033.88,-20.76 1031.25,-20.79 1028.69,-20.87 1026.13,-20.95 1023.15,-21.08 1020.16,-21.20 1015.41,-21.74 1010.65,-22.27 1008.08,-22.69 1005.52,-23.11 1003.30,-23.49 1001.09,-23.88 997.28,-23.87 993.47,-23.87 990.65,-23.98 987.83,-24.08 984.83,-24.36 981.83,-24.64 979.23,-24.55 976.62,-24.46 972.62,-24.25 968.63,-24.04 966.36,-23.60 964.09,-23.16 961.09,-22.66 958.10,-22.15 955.56,-21.85 953.01,-21.54 949.76,-21.57 946.52,-21.61 942.31,-21.52 938.10,-21.44 934.39,-20.74 930.67,-20.04 928.15,-20.02 925.63,-19.99 923.47,-19.74 921.31,-19.48 917.96,-19.49 914.61,-19.50 912.39,-19.32 910.16,-19.14 907.57,-19.23 904.97,-19.31 902.60,-19.50 900.22,-19.70 895.45,-20.10 890.67,-20.50 887.63,-20.64 884.58,-20.77 880.45,-21.23 876.32,-21.69 873.92,-21.84 871.52,-21.98 868.30,-22.08 865.08,-22.17 861.11,-22.17 857.15,-22.16 853.64,-22.33 850.14,-22.49 847.00,-22.51 843.86,-22.52 840.12,-22.39 836.38,-22.26 831.22,-21.92 826.06,-21.58 820.51,-21.39 814.96,-21.21 811.11,-21.33 807.26,-21.44 802.85,-21.68 798.45,-21.91 794.42,-22.17 790.39,-22.43 788.01,-22.36 785.64,-22.29 782.10,-21.90 778.55,-21.51 773.87,-21.51 769.18,-21.52 765.28,-21.74 761.38,-21.97 758.79,-22.19 756.20,-22.41 752.85,-23.05 749.50,-23.69 746.68,-24.01 743.86,-24.33 741.74,-24.58 739.62,-24.83 736.78,-25.13 733.94,-25.43 731.08,-25.52 728.23,-25.61 725.74,-25.76 723.25,-25.92 719.23,-25.79 715.20,-25.66 711.20,-25.47 707.21,-25.28 703.84,-25.17 700.48,-25.06 696.81,-24.71 693.15,-24.37 689.24,-23.57 685.33,-22.78 682.07,-22.03 678.81,-21.28 676.21,-20.98 673.62,-20.68 671.15,-20.58 668.68,-20.47 665.52,-20.07 662.35,-19.66 660.16,-19.55 657.96,-19.44 655.19,-19.01 652.43,-18.59 648.79,-17.99 645.16,-17.38 642.75,-17.11 640.34,-16.83 636.41,-16.72 632.48,-16.61 629.99,-16.22 627.50,-15.84 622.93,-15.39 618.35,-14.94 616.00,-14.61 613.65,-14.27 610.76,-14.01 607.87,-13.74 604.19,-13.87 600.52,-14.00 598.32,-13.98 596.13,-13.96 593.04,-13.68 589.95,-13.40 587.31,-13.36 584.67,-13.33 581.19,-13.01 577.71,-12.69 574.68,-12.64 571.66,-12.59 567.33,-12.08 563.00,-11.58 560.39,-11.66 557.79,-11.74 552.03,-11.73 546.27,-11.73 543.86,-11.84 541.46,-11.95 538.82,-12.05 536.18,-12.15 532.42,-12.01 528.66,-11.88 524.67,-11.56 520.68,-11.24 516.47,-10.64 512.27,-10.05 509.88,-9.99 507.50,-9.93 504.44,-9.67 501.38,-9.40 498.35,-9.37 495.32,-9.34 492.43,-9.34 489.54,-9.33 485.78,-9.11 482.01,-8.89 479.83,-8.93 477.65,-8.98 472.83,-9.09 468.00,-9.20 463.74,-9.68 459.48,-10.15 457.23,-10.23 454.98,-10.30 452.12,-10.32 449.25,-10.34 446.12,-10.35 442.98,-10.36 438.92,-10.90 434.85,-11.44 432.32,-11.51 429.80,-11.59 427.48,-11.70 425.17,-11.81 422.16,-11.84 419.14,-11.88 415.68,-11.83 412.23,-11.77 408.35,-11.55 404.47,-11.33 400.94,-11.06 397.41,-10.79 394.95,-10.59 392.49,-10.39 387.77,-10.52 383.05,-10.65 378.65,-10.75 374.26,-10.86 371.52,-10.74 368.78,-10.62 365.23,-10.64 361.68,-10.65 357.59,-10.51 353.49,-10.37 349.32,-10.15 345.15,-9.93 342.01,-9.92 338.86,-9.92 335.73,-9.89 332.59,-9.86 330.04,-9.87 327.49,-9.89 325.00,-9.80 322.51,-9.72 318.86,-9.15 315.20,-8.58 310.74,-7.71 306.28,-6.83 303.09,-6.59 299.90,-6.36 295.87,-6.13 291.84,-5.90 289.04,-5.92 286.24,-5.94 282.68,-5.80 279.12,-5.66 276.82,-5.71 274.51,-5.77 270.13,-5.90 265.75,-6.03 263.48,-6.07 261.21,-6.11 258.79,-6.07 256.37,-6.03 252.35,-5.46 248.33,-4.89 244.80,-4.56 241.28,-4.23 236.78,-4.42 232.29,-4.60 229.84,-4.67 227.38,-4.74 224.63,-4.73 221.89,-4.72 218.71,-4.51 215.54,-4.30 212.62,-4.34 209.71,-4.39 205.13,-4.00 200.55,-3.61 196.68,-3.56 192.80,-3.50 190.34,-3.69 187.88,-3.87 184.52,-3.96 181.17,-4.06 177.50,-4.07 173.84,-4.09 169.48,-3.88 165.13,-3.66 160.72,-3.17 156.30,-2.68 150.31,-2.18 144.32,-1.69 140.37,-1.28 136.42,-0.87 132.00,-0.40 127.59,0.06 122.13,0.48 116.66,0.90 113.02,0.97 109.38,1.05 103.71,1.46 98.05,1.86 93.40,2.06 88.75,2.26 85.67,2.23 82.60,2.20 78.98,2.34 75.36,2.48 70.29,2.97 65.22,3.46 62.01,3.45 58.81,3.44 56.12,3.35 53.44,3.25 50.15,3.23 46.87,3.22 43.99,3.12 41.11,3.03 36.77,3.27 32.42,3.50 29.48,3.46 26.54,3.42 23.26,3.44 19.99,3.46 17.12,3.44 14.26,3.41 11.13,3.48 8.00,3.55 4.14,3.94 0.28,4.32 -0.23,4.29 -0.75,4.26 -1.25,4.11 -1.75,3.96 -2.20,3.69 -2.65,3.42 -3.02,3.06 -3.39,2.69 -3.66,2.24 -3.94,1.80 -4.10,1.30 -4.25,0.80 -4.29,0.28 -4.32,-0.23 -4.23,-0.74 -4.14,-1.26 -3.93,-1.74 -3.72,-2.22 -3.40,-2.63 -3.08,-3.04 -2.67,-3.37 -2.26,-3.69 -1.79,-3.91 -1.31,-4.13 -0.80,-4.22 -0.28,-4.32 -0.28,-4.32 L -0.28,-4.32 Z"></path></g></svg>