<svg version="1.1" xmlns="http://www.w3.org/2000/svg" viewBox="0 0 271.7982422505877 101.77381705001926" width="271.7982422505877" height="101.77381705001926">
  <!-- svg-source:excalidraw -->
  
  <defs>
    <style class="style-fonts">
      @font-face {
        font-family: "Virgil";
        src: url("https://excalidraw.com/Virgil.woff2");
      }
      @font-face {
        font-family: "Cascadia";
        src: url("https://excalidraw.com/Cascadia.woff2");
      }
      @font-face {
        font-family: "Assistant";
        src: url("https://excalidraw.com/Assistant-Regular.woff2");
      }
    </style>
    
  </defs>
  <g transform="translate(35.743896189815246 30.286514107996254) rotate(3.1622977521394087 -13.005547306456265 16.144817345945683)" stroke="none"><path fill="#657b83" d="M 1.51,4.54 Q 1.51,4.54 -5.52,6.59 -12.57,8.64 -15.33,9.73 -18.09,10.82 -14.81,11.95 -11.54,13.08 -8.77,14.89 -6.00,16.69 -4.76,20.04 -3.52,23.39 -4.54,25.93 -5.56,28.48 -8.78,30.42 -12.00,32.36 -14.64,33.32 -17.29,34.28 -19.42,35.64 -21.54,36.99 -22.36,37.30 -23.18,37.60 -24.06,37.62 -24.93,37.65 -25.77,37.39 -26.61,37.14 -27.32,36.63 -28.03,36.12 -28.55,35.41 -29.06,34.70 -29.32,33.86 -29.58,33.02 -29.55,32.15 -29.53,31.27 -29.23,30.45 -28.93,29.63 -28.38,28.94 -27.83,28.26 -27.10,27.79 -26.36,27.31 -25.51,27.10 -24.66,26.89 -23.79,26.96 -22.91,27.03 -22.11,27.37 -21.30,27.72 -20.65,28.30 -20.00,28.89 -19.57,29.65 -19.13,30.41 -18.97,31.27 -18.80,32.13 -18.92,33.00 -19.03,33.87 -19.42,34.65 -19.81,35.44 -20.43,36.06 -21.05,36.68 -21.83,37.07 -22.62,37.46 -23.48,37.58 -24.35,37.70 -25.21,37.53 -26.07,37.37 -26.84,36.94 -27.60,36.51 -28.18,35.86 -28.77,35.21 -29.12,34.40 -29.46,33.60 -29.54,32.73 -29.61,31.85 -29.40,31.00 -29.19,30.15 -28.72,29.41 -28.25,28.67 -27.56,28.12 -26.88,27.58 -26.88,27.58 -26.88,27.58 -21.81,25.36 -16.75,23.14 -14.31,23.44 -11.87,23.74 -13.91,22.57 -15.96,21.40 -18.24,20.04 -20.52,18.68 -22.61,16.25 -24.69,13.83 -24.17,10.18 -23.65,6.52 -19.46,3.58 -15.27,0.63 -8.39,-1.95 -1.51,-4.54 -0.94,-4.66 -0.38,-4.77 0.19,-4.75 0.77,-4.72 1.32,-4.56 1.88,-4.40 2.38,-4.11 2.88,-3.82 3.29,-3.42 3.71,-3.02 4.02,-2.54 4.33,-2.05 4.51,-1.50 4.69,-0.95 4.74,-0.38 4.78,0.19 4.69,0.76 4.60,1.33 4.37,1.86 4.14,2.39 3.80,2.85 3.45,3.32 3.00,3.68 2.55,4.05 2.03,4.29 1.51,4.54 1.51,4.54 L 1.51,4.54 Z"></path></g><g transform="translate(46.538471743508126 43.70536585454681) rotate(3.1622977521394087 7.623941524474276 19.284087385435214)" stroke="none"><path fill="#657b83" d="M 4.21,0 Q 4.21,0 4.00,6.44 3.79,12.89 3.89,18.12 3.99,23.36 4.24,28.68 4.49,34.01 4.71,37.62 4.94,41.22 5.20,43.24 5.47,45.26 5.43,45.72 5.40,46.17 5.26,46.60 5.11,47.04 4.87,47.42 4.63,47.81 4.30,48.13 3.97,48.44 3.58,48.67 3.19,48.90 2.75,49.03 2.31,49.16 1.85,49.18 1.40,49.20 0.95,49.11 0.51,49.02 0.09,48.83 -0.31,48.63 -0.66,48.34 -1.02,48.06 -1.29,47.69 -1.57,47.33 -1.75,46.91 -1.93,46.49 -2.00,46.04 -2.08,45.59 -2.31,43.43 -2.55,41.26 -3.04,38.89 -3.54,36.51 -3.67,32.68 -3.79,28.84 -3.83,25.19 -3.86,21.54 -3.45,16.79 -3.04,12.03 -2.66,8.18 -2.28,4.33 -1.69,1.17 -1.10,-1.97 -0.04,-4.68 1.01,-7.38 2.47,-9.30 3.94,-11.23 7.73,-11.78 11.53,-12.33 14.41,-9.68 17.29,-7.04 18.47,-4.46 19.66,-1.87 19.87,1.03 20.08,3.95 18.50,7.05 16.91,10.15 15.24,11.92 13.58,13.69 10.78,14.88 7.98,16.07 4.97,15.66 1.95,15.25 1.13,14.85 0.32,14.45 -0.32,13.81 -0.97,13.16 -1.37,12.35 -1.78,11.54 -1.91,10.63 -2.04,9.73 -1.87,8.84 -1.70,7.94 -1.25,7.15 -0.81,6.35 -0.13,5.74 0.53,5.13 1.37,4.77 2.20,4.40 3.11,4.33 4.02,4.25 4.90,4.46 5.79,4.68 6.56,5.17 7.33,5.66 7.90,6.36 8.47,7.07 8.79,7.93 9.11,8.78 9.14,9.69 9.16,10.60 8.90,11.47 8.64,12.34 8.11,13.09 7.58,13.83 6.84,14.36 6.10,14.90 5.23,15.17 4.36,15.44 3.45,15.42 2.54,15.39 1.69,15.08 0.83,14.77 0.12,14.20 -0.58,13.64 -1.08,12.87 -1.57,12.11 -1.79,11.22 -2.02,10.34 -1.95,9.43 -1.88,8.52 -1.52,7.68 -1.16,6.85 -0.56,6.17 0.04,5.49 0.83,5.03 1.62,4.58 2.52,4.41 3.41,4.23 4.31,4.35 5.22,4.47 5.21,4.47 5.21,4.47 5.82,5.14 6.43,5.80 8.42,3.61 10.42,1.43 9.88,-1.73 9.35,-4.89 7.83,-2.56 6.30,-0.23 5.56,2.39 4.81,5.01 4.48,8.70 4.16,12.39 4.11,16.89 4.06,21.39 4.15,24.95 4.25,28.50 4.43,31.91 4.61,35.31 4.84,37.85 5.07,40.38 5.27,42.82 5.47,45.26 5.43,45.72 5.40,46.17 5.26,46.60 5.11,47.04 4.87,47.42 4.63,47.81 4.30,48.13 3.97,48.44 3.58,48.67 3.19,48.90 2.75,49.03 2.31,49.16 1.86,49.18 1.40,49.20 0.95,49.11 0.51,49.02 0.09,48.83 -0.31,48.63 -0.66,48.34 -1.02,48.06 -1.29,47.69 -1.57,47.33 -1.75,46.91 -1.93,46.49 -2.00,46.04 -2.08,45.59 -1.94,43.55 -1.81,41.51 -1.90,37.99 -1.98,34.46 -2.47,29.08 -2.95,23.69 -3.37,18.29 -3.79,12.89 -4.00,6.44 -4.21,0 -4.15,-0.50 -4.09,-1.00 -3.91,-1.48 -3.73,-1.95 -3.44,-2.37 -3.15,-2.79 -2.77,-3.13 -2.39,-3.46 -1.94,-3.70 -1.49,-3.93 -1.00,-4.06 -0.50,-4.18 0.00,-4.18 0.50,-4.18 1.00,-4.06 1.49,-3.93 1.94,-3.70 2.39,-3.46 2.77,-3.13 3.15,-2.79 3.44,-2.37 3.73,-1.95 3.91,-1.48 4.09,-1.00 4.15,-0.50 4.21,0.00 4.21,0.00 L 4.21,0 Z"></path></g><g transform="translate(74.60463055739706 34.935664156995585) rotate(3.1622977521394087 0 7.6239415244743896)" stroke="none"><path fill="#657b83" d="M 4.73,0 Q 4.73,0 4.75,2.83 4.78,5.67 4.81,8.42 4.84,11.17 4.91,12.76 4.99,14.35 4.86,15.14 4.73,15.94 4.35,16.65 3.97,17.37 3.38,17.92 2.80,18.48 2.06,18.82 1.33,19.16 0.53,19.25 -0.27,19.33 -1.05,19.16 -1.84,18.99 -2.54,18.57 -3.23,18.15 -3.75,17.54 -4.27,16.92 -4.57,16.17 -4.87,15.42 -4.92,14.61 -4.96,13.81 -4.74,13.03 -4.53,12.25 -4.07,11.58 -3.62,10.91 -2.98,10.42 -2.33,9.93 -1.57,9.67 -0.80,9.42 0.00,9.42 0.80,9.42 1.57,9.68 2.34,9.93 2.98,10.42 3.62,10.91 4.07,11.58 4.53,12.25 4.74,13.03 4.96,13.81 4.92,14.61 4.87,15.42 4.57,16.17 4.27,16.92 3.75,17.54 3.23,18.15 2.54,18.57 1.84,18.99 1.05,19.16 0.26,19.33 -0.53,19.25 -1.33,19.16 -2.07,18.82 -2.80,18.48 -3.39,17.92 -3.97,17.37 -4.35,16.65 -4.73,15.94 -4.86,15.14 -4.99,14.34 -4.99,14.35 -4.99,14.35 -4.91,12.76 -4.84,11.17 -4.81,8.42 -4.78,5.67 -4.75,2.83 -4.73,0 -4.66,-0.56 -4.59,-1.13 -4.39,-1.66 -4.19,-2.20 -3.86,-2.67 -3.54,-3.13 -3.11,-3.51 -2.68,-3.89 -2.18,-4.16 -1.67,-4.42 -1.12,-4.56 -0.57,-4.70 0.00,-4.70 0.57,-4.70 1.12,-4.56 1.67,-4.42 2.18,-4.16 2.69,-3.89 3.11,-3.51 3.54,-3.13 3.86,-2.66 4.19,-2.20 4.39,-1.66 4.59,-1.13 4.66,-0.56 4.73,0.00 4.73,0.00 L 4.73,0 Z"></path></g><g transform="translate(74.30280912337707 31.314837401299542) rotate(3.1622977521394087 0 0.44846714849848013)" stroke="none"><path d="" stroke="#ffec99" stroke-width="1" fill="none"></path><path fill="#657b83" d="M 4.24,-1.32 Q 4.24,-1.32 4.30,-0.26 4.36,0.80 3.93,1.76 3.49,2.73 2.65,3.39 1.82,4.05 0.77,4.24 -0.26,4.43 -1.28,4.11 -2.29,3.80 -3.04,3.04 -3.80,2.29 -4.11,1.28 -4.43,0.26 -4.24,-0.77 -4.04,-1.82 -3.39,-2.65 -2.73,-3.49 -1.76,-3.93 -0.79,-4.36 0.26,-4.30 1.32,-4.23 2.23,-3.68 3.14,-3.13 3.69,-2.23 L 4.24,-1.32 Z"></path></g><g transform="translate(98.66947789446294 35.07437280665965) rotate(3.1622977521394087 -5.381605781981989 10.763211563963807)" stroke="none"><path fill="#657b83" d="M 2.08,3.87 Q 2.08,3.87 -1.26,5.52 -4.61,7.17 -6.15,9.18 -7.68,11.18 -5.32,13.85 -2.97,16.52 0.46,16.33 3.90,16.14 4.61,16.31 5.32,16.48 5.93,16.86 6.55,17.25 7.01,17.81 7.47,18.37 7.73,19.05 7.99,19.73 8.02,20.46 8.04,21.18 7.84,21.88 7.63,22.58 7.21,23.17 6.79,23.77 6.21,24.20 5.62,24.63 4.93,24.85 4.24,25.07 3.51,25.06 2.78,25.05 2.10,24.80 1.41,24.56 0.84,24.11 0.27,23.66 -0.12,23.05 -0.52,22.44 -0.70,21.74 -0.88,21.04 -0.83,20.31 -0.78,19.59 -0.50,18.91 -0.22,18.24 0.25,17.70 0.73,17.15 1.36,16.79 1.99,16.42 2.70,16.28 3.41,16.13 4.14,16.22 4.86,16.31 5.51,16.63 6.17,16.95 6.69,17.46 7.21,17.96 7.54,18.61 7.87,19.26 7.97,19.98 8.08,20.70 7.95,21.42 7.82,22.13 7.47,22.77 7.12,23.40 6.58,23.90 6.04,24.39 5.38,24.68 4.71,24.98 3.99,25.04 3.26,25.11 3.26,25.11 3.27,25.11 1.53,24.84 -0.20,24.57 -3.25,24.07 -6.30,23.56 -10.00,21.13 -13.71,18.70 -14.11,13.03 -14.51,7.35 -11.65,3.70 -8.78,0.04 -5.43,-1.91 -2.08,-3.87 -1.59,-4.06 -1.09,-4.26 -0.57,-4.32 -0.04,-4.39 0.48,-4.34 1.00,-4.28 1.50,-4.09 2.00,-3.91 2.44,-3.62 2.88,-3.32 3.23,-2.93 3.59,-2.53 3.84,-2.07 4.09,-1.60 4.22,-1.08 4.36,-0.57 4.36,-0.04 4.37,0.48 4.25,1.00 4.12,1.51 3.88,1.98 3.64,2.46 3.29,2.86 2.95,3.26 2.51,3.56 2.08,3.87 2.08,3.87 L 2.08,3.87 Z"></path></g><g transform="translate(120.24773947139238 39.47493012150733) rotate(3.1622977521394087 4.036204336486378 6.278540078978892)" stroke="none"><path fill="#657b83" d="M 3.42,3.91 Q 3.42,3.91 1.51,5.46 -0.39,7.00 0.46,3.96 1.31,0.91 5.29,0.18 9.27,-0.54 11.70,0.87 14.14,2.30 15.78,4.24 17.42,6.17 18.57,7.46 19.72,8.75 20.21,9.57 20.70,10.38 20.90,11.31 21.11,12.24 21.00,13.18 20.90,14.13 20.50,14.99 20.10,15.85 19.45,16.54 18.79,17.23 17.95,17.67 17.11,18.12 16.18,18.27 15.24,18.42 14.30,18.27 13.36,18.12 12.52,17.67 11.68,17.22 11.03,16.53 10.38,15.84 9.98,14.98 9.58,14.12 9.48,13.17 9.38,12.23 9.58,11.30 9.79,10.37 10.28,9.56 10.77,8.75 11.50,8.13 12.22,7.52 13.10,7.17 13.99,6.82 14.93,6.77 15.88,6.71 16.80,6.97 17.71,7.22 18.50,7.76 19.29,8.29 19.86,9.05 20.43,9.81 20.74,10.71 21.04,11.61 21.04,12.56 21.04,13.51 20.73,14.41 20.43,15.31 19.85,16.06 19.28,16.82 18.49,17.35 17.70,17.88 16.79,18.14 15.87,18.39 14.92,18.34 13.97,18.29 13.09,17.93 12.21,17.58 11.49,16.96 10.76,16.35 10.76,16.35 10.76,16.35 9.68,15.00 8.59,13.66 6.88,12.35 5.18,11.04 1.04,12.04 -3.08,13.04 -5.41,11.66 -7.73,10.28 -7.79,5.24 -7.85,0.21 -5.64,-1.85 -3.42,-3.91 -2.91,-4.27 -2.39,-4.62 -1.80,-4.84 -1.21,-5.06 -0.59,-5.13 0.03,-5.20 0.65,-5.12 1.27,-5.04 1.86,-4.82 2.44,-4.59 2.96,-4.23 3.47,-3.87 3.89,-3.40 4.30,-2.93 4.59,-2.37 4.88,-1.81 5.02,-1.20 5.17,-0.59 5.16,0.03 5.16,0.65 5.01,1.26 4.85,1.87 4.56,2.43 4.26,2.98 3.84,3.45 3.42,3.91 3.42,3.91 L 3.42,3.91 Z"></path></g><g transform="translate(142.58457425837184 10.115658059026032) rotate(3.1622977521394087 2.6908028909909376 21.526423127927615)" stroke="none"><path fill="#657b83" d="M 3.90,-0.50 Q 3.90,-0.50 4.50,5.44 5.10,11.39 5.56,16.53 6.02,21.68 6.68,25.82 7.33,29.96 7.75,33.69 8.16,37.43 8.58,40.07 9.00,42.72 8.96,43.31 8.91,43.89 8.69,44.44 8.46,44.98 8.07,45.42 7.68,45.86 7.17,46.16 6.66,46.45 6.08,46.57 5.51,46.68 4.92,46.61 4.34,46.53 3.81,46.28 3.28,46.02 2.86,45.61 2.44,45.20 2.18,44.67 1.91,44.15 1.82,43.56 1.74,42.98 1.85,42.40 1.95,41.82 2.24,41.31 2.52,40.79 2.96,40.40 3.39,40.00 3.93,39.76 4.47,39.53 5.05,39.47 5.64,39.42 6.21,39.56 6.78,39.69 7.28,40.01 7.78,40.32 8.15,40.78 8.53,41.23 8.73,41.78 8.94,42.33 8.96,42.92 8.98,43.51 8.82,44.07 8.65,44.64 8.31,45.12 7.97,45.60 7.50,45.94 7.02,46.29 6.46,46.47 5.90,46.65 5.31,46.64 4.72,46.63 4.17,46.43 3.61,46.23 3.15,45.86 2.69,45.50 2.37,45.01 2.05,44.51 1.90,43.94 1.75,43.37 1.75,43.37 1.75,43.37 1.69,40.70 1.63,38.02 1.40,34.54 1.16,31.07 0.29,26.75 -0.58,22.44 -1.29,17.38 -2.00,12.32 -2.95,6.41 -3.90,0.50 -3.90,0.03 -3.91,-0.43 -3.80,-0.90 -3.69,-1.36 -3.47,-1.78 -3.25,-2.20 -2.94,-2.56 -2.63,-2.92 -2.24,-3.19 -1.85,-3.46 -1.41,-3.64 -0.97,-3.81 -0.50,-3.87 -0.03,-3.93 0.43,-3.88 0.90,-3.82 1.35,-3.66 1.79,-3.50 2.19,-3.23 2.58,-2.96 2.90,-2.61 3.21,-2.26 3.44,-1.84 3.66,-1.42 3.78,-0.96 3.90,-0.50 3.90,-0.50 L 3.90,-0.50 Z"></path></g><g transform="translate(139.64569385950222 37.041597532447895) rotate(3.1622977521394087 5.830072930480412 -0.8969342969970171)" stroke="none"><path fill="#657b83" d="M -0.68,-4.44 Q -0.68,-4.44 2.67,-4.91 6.03,-5.39 8.49,-5.86 10.96,-6.33 11.70,-6.32 12.44,-6.31 13.14,-6.07 13.85,-5.83 14.43,-5.37 15.02,-4.91 15.43,-4.30 15.84,-3.68 16.03,-2.96 16.23,-2.24 16.18,-1.50 16.13,-0.76 15.85,-0.07 15.57,0.61 15.08,1.17 14.59,1.73 13.95,2.11 13.31,2.49 12.59,2.64 11.86,2.79 11.12,2.70 10.38,2.61 9.71,2.30 9.04,1.98 8.51,1.46 7.97,0.94 7.63,0.28 7.29,-0.37 7.17,-1.10 7.06,-1.83 7.19,-2.57 7.32,-3.30 7.67,-3.95 8.03,-4.61 8.57,-5.11 9.12,-5.62 9.79,-5.92 10.47,-6.23 11.21,-6.30 11.95,-6.37 12.67,-6.21 13.40,-6.04 14.03,-5.65 14.66,-5.26 15.14,-4.69 15.61,-4.12 15.88,-3.42 16.15,-2.73 16.18,-1.99 16.22,-1.25 16.01,-0.53 15.80,0.17 15.38,0.78 14.96,1.39 14.36,1.84 13.77,2.28 13.06,2.51 12.35,2.74 12.35,2.74 12.35,2.74 9.86,3.03 7.37,3.32 4.02,3.88 0.68,4.44 0.14,4.46 -0.39,4.47 -0.92,4.36 -1.46,4.25 -1.94,4.01 -2.43,3.78 -2.85,3.43 -3.26,3.08 -3.59,2.65 -3.91,2.21 -4.12,1.71 -4.32,1.21 -4.41,0.67 -4.49,0.14 -4.44,-0.39 -4.39,-0.93 -4.22,-1.44 -4.04,-1.96 -3.75,-2.41 -3.45,-2.87 -3.06,-3.24 -2.67,-3.61 -2.19,-3.88 -1.72,-4.15 -1.20,-4.29 -0.68,-4.44 -0.68,-4.44 L -0.68,-4.44 Z"></path></g><g transform="translate(170.59954080627574 36.79538879489678) rotate(3.1622977521394087 2.6908028909909376 8.07240867297287)" stroke="none"><path fill="#657b83" d="M 4.17,3.03 Q 4.17,3.03 2.02,5.74 -0.12,8.44 3.08,6.08 6.29,3.72 9.11,5.02 11.94,6.32 14.53,9.19 17.11,12.05 17.65,12.89 18.18,13.72 18.42,14.69 18.66,15.65 18.58,16.63 18.49,17.62 18.10,18.53 17.71,19.44 17.05,20.18 16.39,20.92 15.52,21.40 14.66,21.89 13.69,22.08 12.71,22.26 11.73,22.13 10.75,21.99 9.86,21.55 8.98,21.11 8.27,20.41 7.57,19.71 7.14,18.82 6.70,17.93 6.56,16.95 6.43,15.97 6.62,15.00 6.80,14.02 7.29,13.16 7.78,12.30 8.52,11.64 9.26,10.98 10.17,10.59 11.08,10.19 12.07,10.12 13.05,10.04 14.02,10.28 14.98,10.52 15.81,11.05 16.65,11.58 17.27,12.36 17.89,13.13 18.23,14.06 18.57,14.99 18.59,15.98 18.62,16.97 18.33,17.92 18.04,18.87 17.46,19.67 16.88,20.47 16.07,21.05 15.27,21.63 14.32,21.92 13.37,22.21 12.38,22.18 11.39,22.15 10.46,21.81 9.53,21.47 8.76,20.85 7.99,20.23 7.99,20.23 7.99,20.23 6.72,17.73 5.46,15.23 2.46,16.54 -0.53,17.84 -3.20,17.21 -5.87,16.58 -7.81,13.70 -9.76,10.81 -8.94,6.85 -8.12,2.89 -6.14,-0.06 -4.17,-3.03 -3.74,-3.48 -3.32,-3.94 -2.80,-4.28 -2.28,-4.62 -1.69,-4.83 -1.11,-5.03 -0.49,-5.09 0.12,-5.15 0.74,-5.06 1.35,-4.97 1.93,-4.74 2.50,-4.50 3.01,-4.14 3.51,-3.77 3.91,-3.29 4.31,-2.82 4.59,-2.26 4.86,-1.70 5.00,-1.10 5.13,-0.49 5.11,0.12 5.10,0.74 4.93,1.34 4.77,1.94 4.47,2.49 4.17,3.03 4.17,3.03 L 4.17,3.03 Z"></path></g><g transform="translate(233.1895257850049 33.804312830792355) rotate(3.1622977521394087 0.00004999999998744897 0.00004999999998744897)" stroke="none"><path fill="#657b83" d="M 3.14,-3.14 Q 3.14,-3.14 3.55,-2.55 3.97,-1.97 4.18,-1.28 4.40,-0.59 4.38,0.11 4.36,0.83 4.11,1.51 3.86,2.18 3.41,2.74 2.96,3.30 2.36,3.69 1.75,4.08 1.05,4.25 0.36,4.42 -0.35,4.36 -1.07,4.31 -1.73,4.02 -2.39,3.74 -2.92,3.26 -3.46,2.78 -3.81,2.15 -4.16,1.53 -4.30,0.82 -4.43,0.11 -4.34,-0.59 -4.24,-1.30 -3.92,-1.94 -3.60,-2.59 -3.09,-3.09 -2.59,-3.60 -1.94,-3.92 -1.30,-4.24 -0.59,-4.34 0.12,-4.43 0.82,-4.30 1.53,-4.16 2.15,-3.81 2.78,-3.46 3.26,-2.92 3.74,-2.39 4.02,-1.73 4.31,-1.07 4.36,-0.35 4.42,0.36 4.25,1.05 4.07,1.75 3.69,2.36 3.30,2.96 2.74,3.41 2.18,3.86 1.51,4.11 0.83,4.36 0.11,4.38 -0.60,4.40 -1.28,4.18 -1.97,3.97 -2.55,3.55 -3.14,3.13 -3.14,3.14 -3.14,3.14 -3.47,2.71 -3.80,2.29 -4.02,1.80 -4.24,1.32 -4.33,0.79 -4.43,0.26 -4.40,-0.26 -4.36,-0.80 -4.20,-1.31 -4.04,-1.82 -3.77,-2.28 -3.49,-2.73 -3.11,-3.11 -2.73,-3.49 -2.28,-3.77 -1.82,-4.05 -1.31,-4.20 -0.80,-4.36 -0.26,-4.40 0.26,-4.43 0.79,-4.33 1.32,-4.24 1.80,-4.02 2.29,-3.80 2.71,-3.47 3.14,-3.14 3.14,-3.14 L 3.14,-3.14 Z"></path></g><g transform="translate(232.34838408363726 49.0289776255471) rotate(3.1622977521394087 0.00004999999998744897 0.00004999999998744897)" stroke="none"><path fill="#657b83" d="M 3.14,-3.14 Q 3.14,-3.14 3.55,-2.55 3.97,-1.97 4.18,-1.28 4.40,-0.59 4.38,0.11 4.36,0.83 4.11,1.51 3.86,2.18 3.41,2.74 2.96,3.30 2.36,3.69 1.75,4.08 1.05,4.25 0.36,4.42 -0.35,4.36 -1.07,4.31 -1.73,4.02 -2.39,3.74 -2.92,3.26 -3.46,2.78 -3.81,2.15 -4.16,1.53 -4.30,0.82 -4.43,0.11 -4.34,-0.59 -4.24,-1.30 -3.92,-1.94 -3.60,-2.59 -3.09,-3.09 -2.59,-3.60 -1.94,-3.92 -1.30,-4.24 -0.59,-4.34 0.12,-4.43 0.82,-4.30 1.53,-4.16 2.15,-3.81 2.78,-3.46 3.26,-2.92 3.74,-2.39 4.02,-1.73 4.31,-1.07 4.36,-0.35 4.42,0.36 4.25,1.05 4.07,1.75 3.69,2.36 3.30,2.96 2.74,3.41 2.18,3.86 1.51,4.11 0.83,4.36 0.11,4.38 -0.60,4.40 -1.28,4.18 -1.97,3.97 -2.55,3.55 -3.14,3.13 -3.14,3.14 -3.14,3.14 -3.47,2.71 -3.80,2.29 -4.02,1.80 -4.24,1.32 -4.33,0.79 -4.43,0.26 -4.40,-0.26 -4.36,-0.80 -4.20,-1.31 -4.04,-1.82 -3.77,-2.28 -3.49,-2.73 -3.11,-3.11 -2.73,-3.49 -2.28,-3.77 -1.82,-4.05 -1.31,-4.20 -0.80,-4.36 -0.26,-4.40 0.26,-4.43 0.79,-4.33 1.32,-4.24 1.80,-4.02 2.29,-3.80 2.71,-3.47 3.14,-3.14 3.14,-3.14 L 3.14,-3.14 Z"></path></g><g transform="translate(250.75318072120808 19.585924037952736) rotate(3.1622977521394087 0.8969342969969603 21.526423127927615)" stroke="none"><path fill="#657b83" d="M 3.08,-2.70 Q 3.08,-2.70 4.96,-0.70 6.84,1.29 8.52,3.21 10.20,5.13 11.71,7.90 13.21,10.67 13.74,15.39 14.26,20.11 12.06,25.22 9.86,30.32 7.89,33.28 5.92,36.23 2.07,39.12 -1.76,42.01 -4.18,44.03 -6.60,46.05 -7.15,46.35 -7.69,46.64 -8.29,46.75 -8.90,46.86 -9.51,46.77 -10.12,46.68 -10.67,46.40 -11.22,46.12 -11.66,45.68 -12.09,45.24 -12.36,44.69 -12.62,44.13 -12.70,43.52 -12.78,42.90 -12.66,42.30 -12.53,41.69 -12.22,41.16 -11.91,40.63 -11.45,40.22 -10.99,39.81 -10.42,39.57 -9.85,39.33 -9.23,39.29 -8.61,39.25 -8.02,39.40 -7.42,39.56 -6.90,39.90 -6.39,40.23 -6.00,40.72 -5.62,41.21 -5.42,41.79 -5.21,42.37 -5.20,42.99 -5.19,43.60 -5.38,44.19 -5.56,44.78 -5.93,45.28 -6.29,45.78 -6.80,46.13 -7.31,46.48 -7.90,46.66 -8.49,46.83 -9.11,46.81 -9.72,46.79 -10.30,46.57 -10.88,46.35 -11.36,45.96 -11.83,45.57 -12.16,45.04 -12.49,44.52 -12.63,43.92 -12.77,43.32 -12.71,42.70 -12.66,42.09 -12.41,41.52 -12.16,40.96 -11.74,40.50 -11.32,40.05 -11.32,40.05 -11.32,40.05 -8.79,38.17 -6.26,36.29 -3.40,33.91 -0.54,31.53 1.12,29.35 2.78,27.18 4.29,23.87 5.79,20.56 4.48,15.65 3.17,10.75 1.77,8.85 0.37,6.95 -1.35,4.82 -3.08,2.70 -3.36,2.29 -3.64,1.88 -3.81,1.42 -3.99,0.95 -4.04,0.46 -4.10,-0.02 -4.04,-0.51 -3.97,-1.00 -3.80,-1.46 -3.62,-1.92 -3.33,-2.33 -3.05,-2.74 -2.68,-3.06 -2.31,-3.39 -1.87,-3.61 -1.43,-3.84 -0.95,-3.96 -0.46,-4.07 0.02,-4.07 0.52,-4.07 0.99,-3.94 1.47,-3.82 1.91,-3.59 2.35,-3.36 2.72,-3.03 3.08,-2.70 3.08,-2.70 L 3.08,-2.70 Z"></path></g></svg>